<?xml version="1.0" encoding="UTF-8"?>
<!DOCTYPE svg PUBLIC "-//W3C//DTD SVG 1.1//EN" "http://www.w3.org/Graphics/SVG/1.1/DTD/svg11.dtd">
<svg xmlns="http://www.w3.org/2000/svg" version="1.1" width="704px" height="704px" style="shape-rendering:geometricPrecision; text-rendering:geometricPrecision; image-rendering:optimizeQuality; fill-rule:evenodd; clip-rule:evenodd" xmlns:xlink="http://www.w3.org/1999/xlink">
<g><path style="opacity:1" fill="#e2e2e2" d="M -0.5,-0.5 C 217.5,-0.5 435.5,-0.5 653.5,-0.5C 649.047,1.28777 644.38,2.78777 639.5,4C 426.167,4.5 212.834,4.66667 -0.5,4.5C -0.5,2.83333 -0.5,1.16667 -0.5,-0.5 Z"/></g>
<g><path style="opacity:1" fill="#eaeaea" d="M 653.5,-0.5 C 654.833,-0.5 656.167,-0.5 657.5,-0.5C 652.987,4.4232 647.321,7.25653 640.5,8C 426.834,8.5 213.167,8.66667 -0.5,8.5C -0.5,7.16667 -0.5,5.83333 -0.5,4.5C 212.834,4.66667 426.167,4.5 639.5,4C 644.38,2.78777 649.047,1.28777 653.5,-0.5 Z"/></g>
<g><path style="opacity:1" fill="#f0f0f0" d="M 657.5,-0.5 C 659.167,-0.5 660.833,-0.5 662.5,-0.5C 656.842,8.66662 648.509,13.1666 637.5,13C 424.834,13.5 212.167,13.6667 -0.5,13.5C -0.5,11.8333 -0.5,10.1667 -0.5,8.5C 213.167,8.66667 426.834,8.5 640.5,8C 647.321,7.25653 652.987,4.4232 657.5,-0.5 Z"/></g>
<g><path style="opacity:1" fill="#f6f6f6" d="M 662.5,-0.5 C 664.5,-0.5 666.5,-0.5 668.5,-0.5C 664.552,10.6688 656.552,16.8355 644.5,18C 429.5,18.5 214.5,18.6667 -0.5,18.5C -0.5,16.8333 -0.5,15.1667 -0.5,13.5C 212.167,13.6667 424.834,13.5 637.5,13C 648.509,13.1666 656.842,8.66662 662.5,-0.5 Z"/></g>
<g><path style="opacity:1" fill="#fefefe" d="M 668.5,-0.5 C 680.167,-0.5 691.833,-0.5 703.5,-0.5C 703.5,234.167 703.5,468.833 703.5,703.5C 468.833,703.5 234.167,703.5 -0.5,703.5C -0.5,475.167 -0.5,246.833 -0.5,18.5C 214.5,18.6667 429.5,18.5 644.5,18C 656.552,16.8355 664.552,10.6688 668.5,-0.5 Z"/></g>
<g><path style="opacity:1" fill="#e73333" d="M 332.5,52.5 C 374.495,48.9087 405.329,65.5754 425,102.5C 439.776,142.451 431.276,176.618 399.5,205C 371.676,224.395 342.009,227.729 310.5,215C 273.011,194.188 257.178,162.355 263,119.5C 273.018,83.3124 296.184,60.9791 332.5,52.5 Z"/></g>
<g><path style="opacity:1" fill="#fefdfd" d="M 339.5,88.5 C 368.542,87.3945 387.042,100.728 395,128.5C 397.93,154.151 387.764,172.317 364.5,183C 332.154,191.411 310.321,179.911 299,148.5C 295.711,116.985 309.211,96.9854 339.5,88.5 Z"/></g>
<g><path style="opacity:1" fill="#e73333" d="M 509.5,507.5 C 509.5,495.167 509.5,482.833 509.5,470.5C 529.503,470.667 549.503,470.5 569.5,470C 572.068,468.873 573.402,466.873 573.5,464C 560.279,380.509 547.113,297.009 534,213.5C 532.667,211.167 530.667,210.167 528,210.5C 519.233,213.631 510.733,217.465 502.5,222C 455.414,246.737 408.081,271.07 360.5,295C 350.381,297.291 340.381,296.958 330.5,294C 276.469,266.318 222.469,238.651 168.5,211C 163.262,209.367 160.095,211.2 159,216.5C 146.008,298.618 133.175,380.785 120.5,463C 120.301,466.274 121.634,468.607 124.5,470C 144.164,470.5 163.831,470.667 183.5,470.5C 183.5,482.833 183.5,495.167 183.5,507.5C 162.497,507.667 141.497,507.5 120.5,507C 97.9069,502.072 85.5736,488.072 83.5,465C 96.7273,378.469 110.227,291.969 124,205.5C 132.158,182.025 148.658,171.525 173.5,174C 176.5,175 179.5,176 182.5,177C 236.981,204.99 291.481,232.824 346,260.5C 401.643,232.761 457.143,204.595 512.5,176C 541.469,168.897 560.636,179.397 570,207.5C 583.108,289.816 596.108,372.15 609,454.5C 611.77,482.477 599.604,499.977 572.5,507C 551.503,507.5 530.503,507.667 509.5,507.5 Z"/></g>
<g><path style="opacity:1" fill="#fefdfd" d="M 509.5,470.5 C 509.667,444.831 509.5,419.165 509,393.5C 504.393,372.226 491.56,358.726 470.5,353C 388.5,352.333 306.5,352.333 224.5,353C 203.307,358.193 190.14,371.36 185,392.5C 184.832,418.67 184.332,444.67 183.5,470.5C 163.831,470.667 144.164,470.5 124.5,470C 121.634,468.607 120.301,466.274 120.5,463C 133.175,380.785 146.008,298.618 159,216.5C 160.095,211.2 163.262,209.367 168.5,211C 222.469,238.651 276.469,266.318 330.5,294C 340.381,296.958 350.381,297.291 360.5,295C 408.081,271.07 455.414,246.737 502.5,222C 510.733,217.465 519.233,213.631 528,210.5C 530.667,210.167 532.667,211.167 534,213.5C 547.113,297.009 560.279,380.509 573.5,464C 573.402,466.873 572.068,468.873 569.5,470C 549.503,470.5 529.503,470.667 509.5,470.5 Z"/></g>
<g><path style="opacity:1" fill="#0c0101" d="M 509.5,470.5 C 509.5,482.833 509.5,495.167 509.5,507.5C 509.938,523.557 509.438,539.557 508,555.5C 501.424,576.408 487.258,588.241 465.5,591C 385.167,591.667 304.833,591.667 224.5,591C 203,585.5 189.5,572 184,550.5C 183.5,536.171 183.333,521.837 183.5,507.5C 183.5,495.167 183.5,482.833 183.5,470.5C 184.332,444.67 184.832,418.67 185,392.5C 190.14,371.36 203.307,358.193 224.5,353C 306.5,352.333 388.5,352.333 470.5,353C 491.56,358.726 504.393,372.226 509,393.5C 509.5,419.165 509.667,444.831 509.5,470.5 Z"/></g>
<g><path style="opacity:1" fill="#fefefe" d="M 229.5,388.5 C 307.167,388.333 384.834,388.5 462.5,389C 468,390.5 471.5,394 473,399.5C 473.986,449.225 473.653,498.892 472,548.5C 470.125,551.187 467.625,553.021 464.5,554C 385.5,554.667 306.5,554.667 227.5,554C 224.667,552.5 222.5,550.333 221,547.5C 220.333,497.5 220.333,447.5 221,397.5C 222.688,393.315 225.521,390.315 229.5,388.5 Z"/></g>
<g><path style="opacity:1" fill="#0c0202" d="M 209.5,610.5 C 300.834,610.333 392.167,610.5 483.5,611C 490.188,612.695 493.522,617.028 493.5,624C 493.723,630.111 491.056,634.444 485.5,637C 393.167,637.667 300.833,637.667 208.5,637C 203.558,634.118 201.224,629.785 201.5,624C 201.464,621.37 201.964,618.87 203,616.5C 205.063,614.266 207.229,612.266 209.5,610.5 Z"/></g>
</svg>
