<?xml version="1.0" encoding="UTF-8"?>
<svg version="1.1" xmlns="http://www.w3.org/2000/svg" width="514" height="413">
<path d="M0 0 C169.62 0 339.24 0 514 0 C514 136.29 514 272.58 514 413 C344.38 413 174.76 413 0 413 C0 276.71 0 140.42 0 0 Z " fill="#FEFEFE" transform="translate(0,0)"/>
<path d="M0 0 C4.72388904 1.70101616 9.08813735 4.00007103 13.5 6.375 C14.735134 7.01882817 15.97131329 7.66065475 17.20849609 8.30053711 C19.67045021 9.57889896 22.1250963 10.86970608 24.57324219 12.17431641 C27.60681064 13.79051938 30.6481898 15.39002202 33.6953125 16.98046875 C45.68841901 23.25768721 45.68841901 23.25768721 50.16796875 25.79296875 C51.47701172 26.51419922 51.47701172 26.51419922 52.8125 27.25 C53.49957031 27.64703125 54.18664062 28.0440625 54.89453125 28.453125 C60.73449113 29.9699977 68.07152828 24.54056284 73.1484375 21.9140625 C74.11979645 21.41587006 75.0911554 20.91767761 76.09194946 20.40438843 C79.18836396 18.81523975 82.28173981 17.22027838 85.375 15.625 C88.46179099 14.03819651 91.5491861 12.45257304 94.6366272 10.86703491 C96.55380073 9.88191524 98.47047532 8.89582374 100.38656616 7.90859985 C102.9226956 6.60242521 105.46103549 5.30065304 108 4 C109.15243698 3.40460419 109.15243698 3.40460419 110.32815552 2.79718018 C115.89396067 -0.04595155 119.82760513 -1.01492399 126 0 C130.69735146 2.26168774 133.76427807 5.3057107 136 10 C136.95462505 13.64270029 137.44998901 17.32221672 137.953125 21.05078125 C138.28485872 23.30564106 138.61758108 25.56035559 138.95117188 27.81494141 C139.12092529 28.99235901 139.29067871 30.16977661 139.46557617 31.38287354 C140.35559755 37.40678134 141.36545452 43.41050761 142.359375 49.41796875 C142.95754054 53.10160109 143.55245268 56.78574841 144.14697266 60.4699707 C144.55228767 62.96864754 144.96153069 65.46669008 145.37451172 67.96411133 C145.98403024 71.655457 146.57924479 75.34887886 147.171875 79.04296875 C147.3561908 80.13908981 147.54050659 81.23521088 147.73040771 82.36454773 C150.80212197 101.81907704 150.80212197 101.81907704 147.4375 109.625 C141.60176599 115.31109981 137.18962281 116.45290394 129.20898438 116.3515625 C128.17064453 116.31804687 127.13230469 116.28453125 126.0625 116.25 C124.99708984 116.23195313 123.93167969 116.21390625 122.83398438 116.1953125 C120.22171071 116.14845557 117.61133774 116.08286926 115 116 C115.08701172 117.59328125 115.08701172 117.59328125 115.17578125 119.21875 C115.72623627 133.41478367 115.72623627 133.41478367 111.65405178 138.3032465 C107.0177245 143.05926722 102.14110616 145.55313759 95.49780273 145.66653442 C94.71469727 145.65484222 93.9315918 145.64315002 93.12475586 145.63110352 C91.8523983 145.64183647 91.8523983 145.64183647 90.55433655 145.65278625 C87.77394362 145.66957937 84.99518449 145.65032815 82.21484375 145.62890625 C80.27006396 145.62973574 78.32528424 145.63219813 76.38050842 145.63621521 C72.31457288 145.63906669 68.24919019 145.62443422 64.18334961 145.59692383 C58.98250271 145.56281958 53.78264234 145.56887311 48.58174801 145.5875864 C44.56929866 145.59817454 40.5570773 145.58920245 36.54464912 145.57420158 C34.62738282 145.56903417 32.71009256 145.56948401 30.79282951 145.57574654 C28.10998516 145.58122164 25.42853491 145.56075175 22.74584961 145.53344727 C21.96071991 145.53997314 21.17559021 145.54649902 20.3666687 145.55322266 C14.81897808 145.45763608 11.58878126 144.14455545 7 141 C1.81152807 135.39084116 0.70130495 131.31241519 0.875 123.75 C0.88402344 123.00492187 0.89304688 122.25984375 0.90234375 121.4921875 C0.92581642 119.66131941 0.96168475 117.83061762 1 116 C0.34515625 116.02618408 -0.3096875 116.05236816 -0.984375 116.0793457 C-3.98933325 116.18412664 -6.99390599 116.24857941 -10 116.3125 C-11.02996094 116.35439453 -12.05992187 116.39628906 -13.12109375 116.43945312 C-19.18331656 116.53598534 -23.30704557 115.98296195 -28.37890625 112.57104492 C-31.2077606 109.82952719 -32.84196578 107.16501216 -33.37509155 103.23486328 C-33.25292985 94.30800694 -32.11240711 85.66432674 -30.6640625 76.875 C-30.42134084 75.35544792 -30.17952814 73.8357504 -29.93856812 72.31591797 C-29.30703309 68.34773906 -28.66360192 64.38158388 -28.01739502 60.41577148 C-27.36649556 56.408523 -26.7265729 52.3995249 -26.0859375 48.390625 C-25.36192178 43.86386816 -24.6368674 39.33729927 -23.90371704 34.81201172 C-23.73681146 33.78094551 -23.73681146 33.78094551 -23.56653404 32.72904968 C-23.2448066 30.74459697 -22.92176691 28.76035714 -22.59869385 26.77612305 C-21.85203079 22.06671842 -21.17668954 17.34793148 -20.52304077 12.62475586 C-19.80284539 9.01062644 -18.44956838 6.72951905 -16 4 C-15.319375 3.21625 -14.63875 2.4325 -13.9375 1.625 C-9.33832871 -0.91922241 -5.14740287 -0.7281865 0 0 Z " fill="#E73636" transform="translate(197,64)"/>
<path d="M0 0 C4.28859241 1.32565948 8.14428381 2.97808403 12.12109375 5.0546875 C12.98091606 5.50158936 12.98091606 5.50158936 13.85810852 5.95751953 C15.08451408 6.59570291 16.30988786 7.23587237 17.53430176 7.87786865 C19.46129558 8.88746708 21.39180845 9.89003808 23.32324219 10.89111328 C29.47857259 14.08645012 35.61076565 17.31792944 41.70703125 20.625 C43.24435913 21.45088623 43.24435913 21.45088623 44.81274414 22.29345703 C46.7159434 23.31822013 48.61276582 24.35495224 50.50170898 25.40576172 C55.87915632 28.29058273 60.7892835 30.44956538 67 30 C69.68171022 29.06658705 71.6569558 28.20170422 74.0625 26.8125 C75.45227426 26.06482274 76.84296081 25.31883968 78.234375 24.57421875 C78.98912109 24.16220215 79.74386719 23.75018555 80.52148438 23.32568359 C85.22601112 20.80937349 90.02955128 18.48768879 94.8125 16.125 C100.80292946 13.15065784 106.76993158 10.14898828 112.65625 6.97265625 C113.52918701 6.50263184 114.40212402 6.03260742 115.30151367 5.54833984 C116.93946255 4.6606464 118.57271566 3.76421664 120.20043945 2.85791016 C122.09492345 1.83045773 124.04400651 0.9048854 126 0 C126.99 0.33 127.98 0.66 129 1 C131.37825468 13.27734668 133.44979363 25.59171178 135.4375 37.9375 C135.74541941 39.84327864 136.05344435 41.74904022 136.36157227 43.65478516 C136.81904159 46.48546445 137.27618109 49.31619501 137.73228455 52.14709473 C138.59377952 57.49411106 139.46404848 62.8395428 140.34375 68.18359375 C140.70836737 70.41405694 141.07295404 72.64452514 141.4375 74.875 C141.68294556 76.35021118 141.68294556 76.35021118 141.93334961 77.85522461 C142.07780518 78.74604736 142.22226074 79.63687012 142.37109375 80.5546875 C142.49411865 81.30218262 142.61714355 82.04967773 142.74389648 82.81982422 C143.02849204 85.24254905 143.10859559 87.5629796 143 90 C142 91 142 91 139.95874023 91.11352539 C139.08419189 91.10828857 138.20964355 91.10305176 137.30859375 91.09765625 C136.36435547 91.09443359 135.42011719 91.09121094 134.44726562 91.08789062 C133.45404297 91.07951172 132.46082031 91.07113281 131.4375 91.0625 C130.44041016 91.05798828 129.44332031 91.05347656 128.41601562 91.04882812 C125.94395151 91.03700007 123.47200482 91.02051849 121 91 C120.9906543 90.18845459 120.98130859 89.37690918 120.97167969 88.54077148 C120.9177677 84.83907953 120.83415801 81.1386228 120.75 77.4375 C120.73582031 76.16068359 120.72164062 74.88386719 120.70703125 73.56835938 C120.52528073 66.57096445 120.33063856 61.62742867 116 56 C110.74540109 51.12988394 106.49886352 50.84589385 99.5847168 50.82299805 C98.72584869 50.81642685 97.86698059 50.80985565 96.98208618 50.80308533 C94.13779615 50.78336315 91.29355888 50.77169259 88.44921875 50.76171875 C86.99173186 50.75560546 86.99173186 50.75560546 85.5048008 50.74936867 C80.36265907 50.72851328 75.220544 50.71420883 70.07836914 50.70483398 C64.76866682 50.69376618 59.45938318 50.65936039 54.14982891 50.61966228 C50.06542686 50.59351363 45.98112489 50.58514374 41.8966465 50.58155251 C39.93944277 50.57668261 37.98224363 50.56505718 36.02512169 50.54651451 C33.28423257 50.5221587 30.54443107 50.52308145 27.8034668 50.5300293 C26.99753586 50.51721924 26.19160492 50.50440918 25.36125183 50.49121094 C19.32533623 50.5468882 15.72132632 52.3120716 11.34887695 56.63085938 C6.91891443 63.09925002 7.2223439 69.88080029 7.1875 77.5 C7.16236328 78.799375 7.13722656 80.09875 7.11132812 81.4375 C7.05272877 84.62530491 7.0162471 87.8117449 7 91 C3.52085059 91.02887814 0.04173169 91.04675687 -3.4375 91.0625 C-4.92733398 91.07506836 -4.92733398 91.07506836 -6.44726562 91.08789062 C-7.39150391 91.09111328 -8.33574219 91.09433594 -9.30859375 91.09765625 C-10.18314209 91.10289307 -11.05769043 91.10812988 -11.95874023 91.11352539 C-14 91 -14 91 -15 90 C-14.30248131 81.05356466 -12.69205582 72.17550967 -11.3125 63.3125 C-11.04652695 61.59920597 -10.7805768 59.88590839 -10.51464844 58.17260742 C-10.1008539 55.50842857 -9.68662345 52.84432007 -9.27133179 50.18037415 C-8.42126699 44.72563336 -7.58128019 39.26946661 -6.74992371 33.81184387 C-6.21642139 30.31633673 -5.67733327 26.82170546 -5.13705444 23.32723999 C-4.88006174 21.65752701 -4.62534285 19.9874624 -4.37295532 18.31704712 C-4.02051582 15.98769484 -3.65969455 13.659786 -3.296875 11.33203125 C-3.14405312 10.30184875 -3.14405312 10.30184875 -2.98814392 9.25085449 C-2.44734132 5.83928492 -1.77728046 2.98180821 0 0 Z " fill="#FDFCFC" transform="translate(191,76)"/>
<path d="M0 0 C0.77512939 0.00404846 1.55025879 0.00809692 2.34887695 0.01226807 C3.16525635 0.00876343 3.98163574 0.00525879 4.82275391 0.00164795 C7.52946399 -0.00717635 10.23591407 -0.0013178 12.94262695 0.00543213 C14.81827851 0.00408568 16.69392972 0.00214532 18.56958008 -0.00036621 C22.50385861 -0.00331842 26.43804644 0.00098327 30.37231445 0.01031494 C35.4233726 0.02170953 40.47421822 0.01515057 45.52526855 0.00317001 C49.39934907 -0.00404598 53.27337893 -0.00176186 57.14746094 0.0034256 C59.01025416 0.00476282 60.87305193 0.00311186 62.73583984 -0.00153351 C65.33614337 -0.00659448 67.9360994 0.00110532 70.53637695 0.01226807 C71.31150635 0.0082196 72.08663574 0.00417114 72.88525391 0 C78.21409851 0.04252869 78.21409851 0.04252869 80.44262695 2.27105713 C80.69659424 4.51019287 80.69659424 4.51019287 80.70141602 7.331604 C80.70772034 8.38609741 80.71402466 9.44059082 80.72052002 10.52703857 C80.71647156 11.6697522 80.7124231 12.81246582 80.70825195 13.98980713 C80.71016541 15.15862427 80.71207886 16.32744141 80.71405029 17.53167725 C80.71541321 20.00649226 80.71170937 22.48131439 80.70336914 24.95611572 C80.69267141 28.75526918 80.70326113 32.55394972 80.71606445 36.35308838 C80.71474288 38.75282901 80.71218053 41.15256935 80.70825195 43.55230713 C80.71230042 44.69502075 80.71634888 45.83773437 80.72052002 47.01507568 C80.71106354 48.5968158 80.71106354 48.5968158 80.70141602 50.21051025 C80.69982483 51.14157593 80.69823364 52.0726416 80.69659424 53.03192139 C80.44262695 55.27105713 80.44262695 55.27105713 78.44262695 57.27105713 C75.77300209 57.46953321 73.20711403 57.54379532 70.53637695 57.52984619 C69.31180786 57.53510315 69.31180786 57.53510315 68.0625 57.54046631 C65.35578992 57.5492906 62.64933983 57.54343205 59.94262695 57.53668213 C58.0669754 57.53802858 56.19132418 57.53996894 54.31567383 57.54248047 C50.38139529 57.54543268 46.44720746 57.54113099 42.51293945 57.53179932 C37.46188131 57.52040473 32.41103569 57.52696368 27.35998535 57.53894424 C23.48590484 57.54616024 19.61187498 57.54387612 15.73779297 57.53868866 C13.87499975 57.53735144 12.01220197 57.5390024 10.14941406 57.54364777 C7.54911053 57.54870873 4.9491545 57.54100893 2.34887695 57.52984619 C1.57374756 57.53389465 0.79861816 57.53794312 0 57.54211426 C-5.32884461 57.49958557 -5.32884461 57.49958557 -7.55737305 55.27105713 C-7.81134033 53.03192139 -7.81134033 53.03192139 -7.81616211 50.21051025 C-7.82561859 48.62877014 -7.82561859 48.62877014 -7.83526611 47.01507568 C-7.83121765 45.87236206 -7.82716919 44.72964844 -7.82299805 43.55230713 C-7.8249115 42.38348999 -7.82682495 41.21467285 -7.82879639 40.01043701 C-7.83015931 37.535622 -7.82645546 35.06079987 -7.81811523 32.58599854 C-7.8074175 28.78684508 -7.81800723 24.98816454 -7.83081055 21.18902588 C-7.82948897 18.78928525 -7.82692662 16.38954491 -7.82299805 13.98980713 C-7.82704651 12.84709351 -7.83109497 11.70437988 -7.83526611 10.52703857 C-7.82896179 9.47254517 -7.82265747 8.41805176 -7.81616211 7.331604 C-7.81457092 6.40053833 -7.81297974 5.46947266 -7.81134033 4.51019287 C-7.26079798 -0.34373565 -4.15176633 0.03313461 0 0 Z " fill="#FEFEFE" transform="translate(218.557373046875,138.72894287109375)"/>
<path d="M0 0 C0.85872208 -0.0049649 1.71744415 -0.00992981 2.60218811 -0.01504517 C5.45192254 -0.0296868 8.30160127 -0.03647286 11.15136719 -0.04199219 C13.12953697 -0.04774293 15.10770673 -0.05350068 17.08587646 -0.05926514 C21.23873149 -0.06978146 25.39156712 -0.07561968 29.54443359 -0.07910156 C34.86193515 -0.08458112 40.17917998 -0.10859501 45.4966011 -0.13707352 C49.58529402 -0.15571404 53.67392535 -0.1609063 57.76265717 -0.16243744 C59.72263743 -0.16546237 61.68261666 -0.17348553 63.64255524 -0.18662262 C66.38820286 -0.20370911 69.13322679 -0.20179626 71.87890625 -0.1953125 C72.68640823 -0.20452728 73.49391022 -0.21374207 74.32588196 -0.22323608 C80.01479671 -0.18122905 84.24136906 0.89483475 88.56152344 4.87988281 C89.03976562 5.46769531 89.51800781 6.05550781 90.01074219 6.66113281 C90.74744141 7.54285156 90.74744141 7.54285156 91.49902344 8.44238281 C93.79593396 11.73437184 93.84021732 14.72160819 93.89111328 18.60717773 C93.90717621 19.72231247 93.92323914 20.8374472 93.93978882 21.9863739 C93.98432737 27.0912383 94.0257484 32.19601473 94.04833984 37.30102539 C94.06165007 39.99082671 94.08944965 42.67986411 94.13037109 45.36938477 C94.18524093 49.25202194 94.20703199 53.13362844 94.22167969 57.01660156 C94.24434906 58.21270554 94.26701843 59.40880951 94.29037476 60.64115906 C94.2722842 67.81949707 93.64110751 72.78235724 88.69824219 78.16113281 C83.28278322 82.58839242 78.71639062 83.89515851 71.82299805 83.79223633 C70.97475967 83.79939163 70.1265213 83.80654694 69.25257874 83.81391907 C66.47218581 83.83071218 63.69342668 83.81146096 60.91308594 83.79003906 C58.96830615 83.79086855 57.02352643 83.79333095 55.07875061 83.79734802 C51.01281507 83.8001995 46.94743238 83.78556704 42.8815918 83.75805664 C37.6807449 83.72395239 32.48088453 83.73000592 27.2799902 83.74871922 C23.26754085 83.75930735 19.25531948 83.75033526 15.24289131 83.7353344 C13.325625 83.73016699 11.40833475 83.73061682 9.4910717 83.73687935 C6.80822735 83.74235445 4.12677709 83.72188456 1.4440918 83.69458008 C0.26639725 83.7043689 0.26639725 83.7043689 -0.93508911 83.71435547 C-6.48277973 83.61876889 -9.71297655 82.30568826 -14.30175781 79.16113281 C-18.58543974 74.53012533 -20.53955974 70.91693619 -20.6081543 64.6015625 C-20.62414169 63.4865033 -20.64012909 62.37144409 -20.65660095 61.22259521 C-20.66196365 60.02153137 -20.66732635 58.82046753 -20.67285156 57.58300781 C-20.68188004 56.34246643 -20.69090851 55.10192505 -20.70021057 53.8237915 C-20.71472093 51.19781917 -20.72360174 48.57181061 -20.72729492 45.94580078 C-20.73159997 43.26278155 -20.75242874 40.58072309 -20.78881836 37.89794922 C-20.83771698 34.02183871 -20.85308894 30.14689517 -20.86035156 26.27050781 C-20.87988388 25.07754089 -20.8994162 23.88457397 -20.91954041 22.65545654 C-20.88115475 15.53334273 -20.07624065 10.61646989 -15.30175781 5.16113281 C-10.12558823 0.46646737 -6.81314677 0.00933809 0 0 Z M-7.30175781 15.16113281 C-7.60807854 17.49192709 -7.60807854 17.49192709 -7.56054688 20.22167969 C-7.5668512 21.2761731 -7.57315552 22.3306665 -7.57965088 23.41711426 C-7.57560242 24.55982788 -7.57155396 25.7025415 -7.56738281 26.87988281 C-7.56929626 28.04869995 -7.57120972 29.21751709 -7.57318115 30.42175293 C-7.57454407 32.89656794 -7.57084022 35.37139007 -7.5625 37.84619141 C-7.55180227 41.64534486 -7.56239199 45.44402541 -7.57519531 49.24316406 C-7.57387374 51.64290469 -7.57131139 54.04264503 -7.56738281 56.44238281 C-7.57143127 57.58509644 -7.57547974 58.72781006 -7.57965088 59.90515137 C-7.57334656 60.95964478 -7.56704224 62.01413818 -7.56054688 63.10058594 C-7.55895569 64.03165161 -7.5573645 64.96271729 -7.5557251 65.92199707 C-7.51420743 68.36395744 -7.51420743 68.36395744 -5.30175781 70.16113281 C-2.63213295 70.35960889 -0.06624489 70.433871 2.60449219 70.41992188 C3.82906128 70.42517883 3.82906128 70.42517883 5.07836914 70.43054199 C7.78507922 70.43936629 10.49152931 70.43350774 13.19824219 70.42675781 C15.07389374 70.42810426 16.94954496 70.43004463 18.82519531 70.43255615 C22.75947385 70.43550836 26.69366168 70.43120667 30.62792969 70.421875 C35.67898783 70.41048041 40.72983345 70.41703937 45.78088379 70.42901993 C49.6549643 70.43623592 53.52899416 70.4339518 57.40307617 70.42876434 C59.26586939 70.42742712 61.12866717 70.42907808 62.99145508 70.43372345 C65.59175861 70.43878442 68.19171464 70.43108462 70.79199219 70.41992188 C71.56712158 70.42397034 72.34225098 70.4280188 73.14086914 70.43218994 C77.3798478 70.54694452 77.3798478 70.54694452 80.69824219 68.16113281 C81.00456291 65.83033854 81.00456291 65.83033854 80.95703125 63.10058594 C80.96648773 61.51884583 80.96648773 61.51884583 80.97613525 59.90515137 C80.97208679 58.76243774 80.96803833 57.61972412 80.96386719 56.44238281 C80.96578064 55.27356567 80.96769409 54.10474854 80.96966553 52.9005127 C80.97102845 50.42569768 80.9673246 47.95087555 80.95898438 45.47607422 C80.94828664 41.67692077 80.95887637 37.87824022 80.97167969 34.07910156 C80.97035811 31.67936093 80.96779576 29.27962059 80.96386719 26.87988281 C80.96791565 25.73716919 80.97196411 24.59445557 80.97613525 23.41711426 C80.96983093 22.36262085 80.96352661 21.30812744 80.95703125 20.22167969 C80.95544006 19.29061401 80.95384888 18.35954834 80.95220947 17.40026855 C80.91069181 14.95830818 80.91069181 14.95830818 78.69824219 13.16113281 C76.02861733 12.96265674 73.46272927 12.88839462 70.79199219 12.90234375 C69.97561279 12.89883911 69.1592334 12.89533447 68.31811523 12.89172363 C65.61140515 12.88289934 62.90495507 12.88875789 60.19824219 12.89550781 C58.32259063 12.89416136 56.44693942 12.892221 54.57128906 12.88970947 C50.63701053 12.88675726 46.7028227 12.89105895 42.76855469 12.90039062 C37.71749654 12.91178521 32.66665093 12.90522626 27.61560059 12.8932457 C23.74152007 12.8860297 19.86749021 12.88831382 15.9934082 12.89350128 C14.13061498 12.8948385 12.26781721 12.89318754 10.4050293 12.88854218 C7.80472577 12.88348121 5.20476974 12.89118101 2.60449219 12.90234375 C1.82936279 12.89829529 1.0542334 12.89424683 0.25561523 12.89007568 C-3.98336342 12.7753211 -3.98336342 12.7753211 -7.30175781 15.16113281 Z " fill="#1F1E1E" transform="translate(218.3017578125,125.8388671875)"/>
<path d="M0 0 C2.26011071 1.20092991 4.10597239 2.47291659 6.0546875 4.12890625 C6.69664062 4.66 7.33859375 5.19109375 8 5.73828125 C13.79221915 11.02156064 17.45361591 17.51233567 18.29296875 25.35546875 C18.55924994 33.9605556 16.28384275 40.75859219 10.8046875 47.44140625 C5.64075973 52.92669434 -1.12835534 57.55033318 -8.7421875 58.46484375 C-18.95708381 58.59996143 -25.66878687 56.02011635 -33.15625 49.0546875 C-39.06110225 42.69859108 -42.50441208 35.374062 -42.25390625 26.62109375 C-41.18137761 17.95940674 -37.44732612 10.89829862 -30.9453125 5.12890625 C-21.81995446 -1.48821594 -10.98574695 -3.24910022 0 0 Z " fill="#E73636" transform="translate(266.9453125,22.87109375)"/>
<path d="M0 0 C4.29 0 8.58 0 13 0 C14.17407021 2.26727333 15.33939739 4.53834624 16.5 6.8125 C16.83386719 7.45509766 17.16773437 8.09769531 17.51171875 8.75976562 C19.00239084 11.69547699 20 13.66126517 20 17 C20.66 17 21.32 17 22 17 C22.17015625 16.443125 22.3403125 15.88625 22.515625 15.3125 C24.23315937 9.90409391 26.35342255 5.01937104 29 0 C33.29 0 37.58 0 42 0 C42 10.23 42 20.46 42 31 C38.37 31 34.74 31 31 31 C30.67 26.05 30.34 21.1 30 16 C29.57847656 16.99902344 29.15695313 17.99804688 28.72265625 19.02734375 C28.16939783 20.33078308 27.61600549 21.63416557 27.0625 22.9375 C26.78470703 23.59685547 26.50691406 24.25621094 26.22070312 24.93554688 C24.11328125 29.88671875 24.11328125 29.88671875 23 31 C20.69 31 18.38 31 16 31 C13.69 26.38 11.38 21.76 9 17 C8.67 21.95 8.34 26.9 8 32 C5.36 32 2.72 32 0 32 C0 21.44 0 10.88 0 0 Z " fill="#E73535" transform="translate(49,255)"/>
<path d="M0 0 C4.63887984 2.61464137 8.04312519 6.14875038 10.4375 10.9375 C11.02779191 16.61338376 10.75191063 21.12625876 7.4375 25.9375 C3.11851192 30.19650213 -0.11133588 33.07148164 -6.3125 33.25 C-11.21481526 33.18651678 -13.80899492 32.25455101 -17.5625 28.9375 C-22.38694856 23.79841349 -23.9306844 20.53769908 -23.83984375 13.54296875 C-23.39502459 9.36417465 -22.11668806 7.29827377 -19.5625 3.9375 C-13.19609352 -0.99971319 -7.83468051 -2.3366591 0 0 Z " fill="#FEFBFB" transform="translate(261.5625,35.0625)"/>
<path d="M0 0 C0.90963501 0.00045319 1.81927002 0.00090637 2.75646973 0.00137329 C4.18564476 -0.00366463 4.18564476 -0.00366463 5.64369202 -0.00880432 C8.81028528 -0.01834541 11.97682585 -0.020259 15.14343262 -0.02133179 C17.33439659 -0.02454212 19.52536034 -0.02790602 21.71632385 -0.03141785 C26.31564837 -0.037417 30.91495407 -0.03925694 35.51428223 -0.03866577 C41.42067043 -0.03856409 47.32693858 -0.05221869 53.2332983 -0.06943798 C57.7601833 -0.08053217 62.28703903 -0.08258578 66.81393623 -0.08205605 C68.99212623 -0.08323998 71.17031688 -0.08768469 73.34849358 -0.09538841 C76.38952018 -0.10513655 79.43028304 -0.10233085 82.47131348 -0.09628296 C83.37892426 -0.10190247 84.28653503 -0.10752197 85.22164917 -0.11331177 C91.45027371 -0.08167819 91.45027371 -0.08167819 93.67858887 2.14663696 C93.92858887 4.64663696 93.92858887 4.64663696 93.67858887 7.14663696 C90.98476273 9.8404631 88.89382297 9.39734143 85.23275757 9.42880249 C84.32671783 9.42632507 83.4206781 9.42384766 82.48718262 9.42129517 C81.05778854 9.42896156 81.05778854 9.42896156 79.59951782 9.43678284 C76.43831159 9.45072396 73.27732225 9.44971882 70.11608887 9.44741821 C67.92655353 9.45130236 65.73701895 9.45563643 63.54748535 9.46040344 C58.95411742 9.46787517 54.36082635 9.46756726 49.76745605 9.46231079 C43.86887132 9.45651171 37.97060012 9.47345331 32.07206726 9.49665546 C27.54946033 9.51135592 23.02692957 9.5122696 18.50430298 9.50914574 C16.32890196 9.5096607 14.15349687 9.51493106 11.9781189 9.52495766 C8.94186762 9.53723483 5.90623579 9.53058323 2.86999512 9.51895142 C1.51093552 9.53041702 1.51093552 9.53041702 0.12442017 9.54211426 C-2.37390137 9.52085876 -2.37390137 9.52085876 -6.32141113 9.14663696 C-8.32141113 6.14663696 -8.32141113 6.14663696 -8.00891113 3.52163696 C-6.69441855 -1.0193374 -4.3513805 0.02254794 0 0 Z " fill="#1A1A1A" transform="translate(212.3214111328125,215.85336303710938)"/>
<path d="M0 0 C1.63671875 0.94921875 1.63671875 0.94921875 3.63671875 3.94921875 C3.86376953 6.2175293 3.86376953 6.2175293 3.83203125 8.8359375 C3.82558594 9.77373047 3.81914062 10.71152344 3.8125 11.67773438 C3.79574219 12.65419922 3.77898437 13.63066406 3.76171875 14.63671875 C3.75269531 15.62478516 3.74367187 16.61285156 3.734375 17.63085938 C3.71080305 20.0705564 3.67789897 22.50976572 3.63671875 24.94921875 C-1.27779188 27.82660051 -6.25030047 27.31734509 -11.80078125 27.32421875 C-12.83783203 27.34871094 -13.87488281 27.37320312 -14.94335938 27.3984375 C-19.46387694 27.41585761 -22.52129116 27.39958554 -26.5546875 25.2421875 C-28.68228546 22.54477929 -28.986406 21.28803999 -28.86328125 17.88671875 C-28.85296875 17.02949219 -28.84265625 16.17226563 -28.83203125 15.2890625 C-28.26792098 12.47321205 -27.60019003 11.70426933 -25.36328125 9.94921875 C-23.27856445 9.60864258 -23.27856445 9.60864258 -20.9140625 9.65625 C-20.06650391 9.66591797 -19.21894531 9.67558594 -18.34570312 9.68554688 C-17.0240918 9.72325195 -17.0240918 9.72325195 -15.67578125 9.76171875 C-14.78310547 9.77525391 -13.89042969 9.78878906 -12.97070312 9.80273438 C-10.76761959 9.83807796 -8.56575543 9.88741382 -6.36328125 9.94921875 C-7.02328125 8.29921875 -7.68328125 6.64921875 -8.36328125 4.94921875 C-14.30328125 4.61921875 -20.24328125 4.28921875 -26.36328125 3.94921875 C-26.03328125 2.29921875 -25.70328125 0.64921875 -25.36328125 -1.05078125 C-17.5692359 -3.64879637 -7.64845918 -2.7534453 0 0 Z " fill="#E83B3B" transform="translate(126.36328125,260.05078125)"/>
<path d="M0 0 C3.63 0 7.26 0 11 0 C11 2.64 11 5.28 11 8 C11.95261719 7.96519531 12.90523437 7.93039062 13.88671875 7.89453125 C15.14097656 7.86746094 16.39523438 7.84039062 17.6875 7.8125 C19.54955078 7.76029297 19.54955078 7.76029297 21.44921875 7.70703125 C26.20179198 8.09915775 28.68203836 9.68203836 32 13 C32.24291992 15.13891602 32.24291992 15.13891602 32.23046875 17.75390625 C32.22853516 18.69041016 32.22660156 19.62691406 32.22460938 20.59179688 C32.20624023 22.06229492 32.20624023 22.06229492 32.1875 23.5625 C32.18685547 24.54669922 32.18621094 25.53089844 32.18554688 26.54492188 C32.14017532 33.85982468 32.14017532 33.85982468 31 35 C29.48071962 35.07179964 27.95832518 35.08392007 26.4375 35.0625 C25.61121094 35.05347656 24.78492188 35.04445313 23.93359375 35.03515625 C23.29550781 35.02355469 22.65742188 35.01195312 22 35 C21.97494385 34.39937744 21.9498877 33.79875488 21.92407227 33.17993164 C21.8084472 30.47388563 21.68557064 27.76821717 21.5625 25.0625 C21.52318359 24.11697266 21.48386719 23.17144531 21.44335938 22.19726562 C21.40146484 21.29814453 21.35957031 20.39902344 21.31640625 19.47265625 C21.27974854 18.64000244 21.24309082 17.80734863 21.20532227 16.94946289 C21.20632897 14.99661142 21.20632897 14.99661142 20 14 C17.03 13.67 14.06 13.34 11 13 C11 20.59 11 28.18 11 36 C2 36 2 36 0 35 C0 23.45 0 11.9 0 0 Z " fill="#E83C3C" transform="translate(191,251)"/>
<path d="M0 0 C3.274951 2.8200967 4.80267568 4.82943248 5.203125 9.234375 C5.30975745 14.95698307 5.02132014 19.0651771 2 24 C-2.55924073 27.62401186 -7.60421792 27.50147017 -13.21484375 27.35546875 C-16.88106784 26.88754955 -18.63967736 25.83238717 -21 23 C-24.21989021 17.87117488 -23.58611368 11.8249569 -23 6 C-21.80232818 2.49761917 -19.96962367 0.60947773 -16.8125 -1.375 C-11.15130037 -2.63304436 -5.16431398 -2.95103656 0 0 Z " fill="#FEF8F8" transform="translate(399,260)"/>
<path d="M0 0 C2.23874258 1.71961387 2.93180136 2.52740057 3.34057617 5.36010742 C3.32486572 6.26607666 3.30915527 7.1720459 3.29296875 8.10546875 C3.28330078 9.08837891 3.27363281 10.07128906 3.26367188 11.08398438 C3.23853516 12.10814453 3.21339844 13.13230469 3.1875 14.1875 C3.16719727 15.74114258 3.16719727 15.74114258 3.14648438 17.32617188 C3.11111389 19.88463699 3.06175544 22.4420578 3 25 C-1.37282376 27.46831162 -5.08334957 27.33213519 -10 27.3125 C-11.21042969 27.33666992 -11.21042969 27.33666992 -12.4453125 27.36132812 C-15.96933783 27.36423574 -18.3529482 27.34475729 -21.5 25.66796875 C-23.81154733 23.09757627 -24.00214771 20.97046899 -24.25 17.5625 C-24 14 -24 14 -23.08984375 11.79296875 C-19.62662632 8.82172239 -15.7041454 9.58294399 -11.3125 9.75 C-10.41982422 9.76804687 -9.52714844 9.78609375 -8.60742188 9.8046875 C-6.40386496 9.85182241 -4.20247399 9.91759343 -2 10 C-2.77030122 6.51190809 -2.77030122 6.51190809 -4 3 C-7.61867559 1.7937748 -10.92506251 1.89183082 -14.6875 1.9375 C-15.38939453 1.94201172 -16.09128906 1.94652344 -16.81445312 1.95117188 C-18.54300538 1.96293073 -20.27151365 1.98086546 -22 2 C-21.67 1.01 -21.34 0.02 -21 -1 C-14.55812078 -3.14729307 -6.13715438 -2.98989572 0 0 Z " fill="#E83D3D" transform="translate(349,260)"/>
<path d="M0 0 C1.1034375 -0.00515625 2.206875 -0.0103125 3.34375 -0.015625 C6.46392334 0.24696385 8.68304814 0.92561218 11.5 2.25 C11.5 3.57 11.5 4.89 11.5 6.25 C10.52417969 6.28738281 9.54835937 6.32476562 8.54296875 6.36328125 C6.63451172 6.46189453 6.63451172 6.46189453 4.6875 6.5625 C3.42292969 6.62050781 2.15835938 6.67851562 0.85546875 6.73828125 C-2.40613536 6.9978247 -2.40613536 6.9978247 -4.42578125 8.51171875 C-5.79023212 10.71964834 -5.90086132 12.16386758 -5.875 14.75 C-5.88273438 15.5234375 -5.89046875 16.296875 -5.8984375 17.09375 C-5.63023659 19.27401483 -5.63023659 19.27401483 -4.42578125 20.98828125 C-1.49141093 22.91079974 1.22143473 22.77850618 4.6875 22.9375 C5.95980469 23.00324219 7.23210937 23.06898438 8.54296875 23.13671875 C9.51878906 23.17410156 10.49460938 23.21148437 11.5 23.25 C11.125 25.6875 11.125 25.6875 10.5 28.25 C5.4442342 30.7778829 -3.46065424 29.91136164 -8.94140625 28.71875 C-12.52111788 27.29614322 -14.59829948 25.54518798 -16.5 22.25 C-16.96875 18.75390625 -16.96875 18.75390625 -17 14.8125 C-17.0309375 13.51441406 -17.061875 12.21632813 -17.09375 10.87890625 C-16.35600988 6.3699551 -15.07305758 5.01510495 -11.5 2.25 C-7.64836718 0.17411998 -4.34058858 -0.02028312 0 0 Z " fill="#E83B3B" transform="translate(174.5,257.75)"/>
<path d="M0 0 C1.37478516 0.01740234 1.37478516 0.01740234 2.77734375 0.03515625 C3.69644531 0.04417969 4.61554688 0.05320313 5.5625 0.0625 C6.27277344 0.07410156 6.98304688 0.08570313 7.71484375 0.09765625 C7.71484375 2.73765625 7.71484375 5.37765625 7.71484375 8.09765625 C9.69484375 8.09765625 11.67484375 8.09765625 13.71484375 8.09765625 C13.71484375 9.74765625 13.71484375 11.39765625 13.71484375 13.09765625 C11.73484375 13.09765625 9.75484375 13.09765625 7.71484375 13.09765625 C8.04484375 19.03765625 8.37484375 24.97765625 8.71484375 31.09765625 C10.36484375 31.42765625 12.01484375 31.75765625 13.71484375 32.09765625 C13.38484375 33.41765625 13.05484375 34.73765625 12.71484375 36.09765625 C10.79943237 36.20607576 8.88224602 36.28343704 6.96484375 36.34765625 C5.8975 36.3940625 4.83015625 36.44046875 3.73046875 36.48828125 C0.71484375 36.09765625 0.71484375 36.09765625 -1.66015625 34.69140625 C-4.15888688 30.70304775 -3.71181729 26.94763802 -3.53515625 22.34765625 C-3.51710937 21.45949219 -3.4990625 20.57132812 -3.48046875 19.65625 C-3.43342999 17.46894777 -3.36772634 15.28385809 -3.28515625 13.09765625 C-4.27515625 13.09765625 -5.26515625 13.09765625 -6.28515625 13.09765625 C-6.28515625 11.44765625 -6.28515625 9.79765625 -6.28515625 8.09765625 C-5.29515625 8.09765625 -4.30515625 8.09765625 -3.28515625 8.09765625 C-3.30578125 6.96328125 -3.32640625 5.82890625 -3.34765625 4.66015625 C-3.26834953 0.13967306 -3.26834953 0.13967306 0 0 Z " fill="#E83C3C" transform="translate(140.28515625,250.90234375)"/>
<path d="M0 0 C4.51315789 2.02631579 4.51315789 2.02631579 6 5 C6.58876017 10.22314376 6.82400294 14.55089139 4.1875 19.1875 C-0.53239887 21.87136407 -4.70179065 21.94525774 -10 21 C-13.1875 19.1875 -13.1875 19.1875 -15 16 C-15.94995757 10.67544793 -15.89407648 6.51993001 -13.125 1.8125 C-8.71134818 -0.74741806 -4.9872034 -0.76978181 0 0 Z " fill="#1C1313" transform="translate(305,330)"/>
<path d="M0 0 C1.66611905 -0.042721 3.33382885 -0.04063832 5 0 C6.4999411 1.4999411 6.31607651 2.94659605 6.53515625 5.03515625 C6.62216797 5.84404297 6.70917969 6.65292969 6.79882812 7.48632812 C6.88583984 8.33646484 6.97285156 9.18660156 7.0625 10.0625 C7.15337891 10.91650391 7.24425781 11.77050781 7.33789062 12.65039062 C7.56250722 14.76651535 7.78175227 16.88320894 8 19 C8.99 19 9.98 19 11 19 C11.103125 17.72125 11.20625 16.4425 11.3125 15.125 C11.88133308 9.86329406 13.3374613 5.00852854 15 0 C16.65 0 18.3 0 20 0 C22.71190018 6.19862897 24.33995394 12.20092117 24 19 C24.99 18.67 25.98 18.34 27 18 C27.99 12.06 28.98 6.12 30 0 C30.99 0 31.98 0 33 0 C32.57477229 7.8667126 31.97537032 15.36190145 30 23 C27.03 23 24.06 23 21 23 C20.01 18.71 19.02 14.42 18 10 C16.4005386 13.19892281 15.57404764 15.35462576 14.875 18.75 C14.58625 20.1525 14.2975 21.555 14 23 C10.7 23 7.4 23 4 23 C3.32836454 19.91767296 2.66251754 16.83428775 2 13.75 C1.80921875 12.87730469 1.6184375 12.00460937 1.421875 11.10546875 C1.24140625 10.26113281 1.0609375 9.41679687 0.875 8.546875 C0.70742187 7.77182617 0.53984375 6.99677734 0.3671875 6.19824219 C0 4 0 4 0 0 Z " fill="#191010" transform="translate(253,327)"/>
<path d="M0 0 C3.125 1.8125 3.125 1.8125 4.5625 4 C5.125 6.8125 5.125 6.8125 5.125 14.8125 C-1.475 14.8125 -8.075 14.8125 -14.875 14.8125 C-14.545 13.8225 -14.215 12.8325 -13.875 11.8125 C-9.255 11.8125 -4.635 11.8125 0.125 11.8125 C-0.13893501 8.38019552 -0.13893501 8.38019552 -0.875 4.8125 C-4.08936529 2.66958981 -6.04926609 2.51224209 -9.83984375 2.3515625 C-12.89306219 3.04307839 -14.01886373 4.32405358 -15.875 6.8125 C-16.50713261 9.94264278 -16.50713261 9.94264278 -16.375 13.3125 C-16.3853125 14.4365625 -16.395625 15.560625 -16.40625 16.71875 C-16.07528886 19.83560381 -16.07528886 19.83560381 -14.359375 22.203125 C-10.85719284 24.4718342 -7.64601824 24.24721109 -3.625 24.0625 C-2.87992187 24.04445313 -2.13484375 24.02640625 -1.3671875 24.0078125 C0.46409701 23.96085649 2.29471649 23.88911652 4.125 23.8125 C3.795 24.8025 3.465 25.7925 3.125 26.8125 C-0.46501609 28.00917203 -3.4654839 28.01788881 -7.25 28.0625 C-8.55710937 28.08828125 -9.86421875 28.1140625 -11.2109375 28.140625 C-15.06997371 27.79503967 -16.88446503 27.22667732 -19.875 24.8125 C-22.37132726 21.42624338 -22.17435446 17.98079105 -22.1875 13.875 C-22.20425781 12.66972656 -22.22101563 11.46445312 -22.23828125 10.22265625 C-21.84694992 6.5491912 -21.11919382 4.7142948 -18.875 1.8125 C-12.6196881 -1.74444206 -6.7412482 -2.44754862 0 0 Z " fill="#E83D3D" transform="translate(314.875,259.1875)"/>
<path d="M0 0 C3.274951 2.8200967 4.80267568 4.82943248 5.203125 9.234375 C5.30975745 14.95698307 5.02132014 19.0651771 2 24 C-2.55924073 27.62401186 -7.60421792 27.50147017 -13.21484375 27.35546875 C-16.88106784 26.88754955 -18.63967736 25.83238717 -21 23 C-24.21989021 17.87117488 -23.58611368 11.8249569 -23 6 C-21.80232818 2.49761917 -19.96962367 0.60947773 -16.8125 -1.375 C-11.15130037 -2.63304436 -5.16431398 -2.95103656 0 0 Z M-17 4 C-18.39865903 6.79731805 -18.24537267 9.19284559 -18.3125 12.3125 C-18.34988281 13.44300781 -18.38726562 14.57351563 -18.42578125 15.73828125 C-17.90974457 19.69140627 -16.89350016 21.29140399 -14 24 C-10.93375771 24.86912854 -8.11119237 24.6348205 -5 24 C-2.49839182 22.12379387 -1.38054348 20.76108697 0 18 C0.41676403 13.02287573 0.65548795 8.48974534 -1.375 3.875 C-3.71660018 1.17315364 -4.68333766 1.02389904 -8.3125 0.75 C-12.19655077 1.01332548 -13.94531404 1.66406368 -17 4 Z " fill="#E84040" transform="translate(399,260)"/>
<path d="M0 0 C0.69416016 -0.00322266 1.38832031 -0.00644531 2.10351562 -0.00976562 C6.14300861 0.03243231 9.30310791 0.53426917 12.9375 2.3125 C12.6075 3.3025 12.2775 4.2925 11.9375 5.3125 C10.7928125 5.065 10.7928125 5.065 9.625 4.8125 C3.59692869 3.9951344 -2.52087314 3.19418418 -8.1875 5.6875 C-10.15919252 7.18670585 -10.15919252 7.18670585 -11.0625 9.3125 C-11.21311901 11.78612762 -11.29375317 14.21291815 -11.3125 16.6875 C-11.333125 17.36039062 -11.35375 18.03328125 -11.375 18.7265625 C-11.39914027 21.79237678 -11.23084671 23.99139423 -9.796875 26.7265625 C-6.90538899 29.37057899 -3.75096639 29.43892778 0.046875 29.41015625 C1.17802734 29.40532227 1.17802734 29.40532227 2.33203125 29.40039062 C3.10933594 29.39201172 3.88664062 29.38363281 4.6875 29.375 C5.87666016 29.36823242 5.87666016 29.36823242 7.08984375 29.36132812 C9.03909508 29.34958565 10.98830738 29.33165146 12.9375 29.3125 C11.9375 32.3125 11.9375 32.3125 9.9375 33.3125 C6.86117699 33.60275692 3.77593757 33.59037626 0.6875 33.625 C-0.15941406 33.65400391 -1.00632813 33.68300781 -1.87890625 33.71289062 C-7.43801599 33.76908691 -10.74334865 33.15392703 -15.0625 29.3125 C-18.30339873 25.3042003 -18.49488761 21.95160319 -18.5 16.875 C-18.51933594 15.59753906 -18.53867188 14.32007813 -18.55859375 13.00390625 C-17.97489965 8.66067066 -16.91920294 6.61600839 -14.0625 3.3125 C-9.50056146 0.2301091 -5.36774155 -0.12529742 0 0 Z " fill="#E84141" transform="translate(247.0625,253.6875)"/>
<path d="M0 0 C1.10988281 -0.01417969 2.21976562 -0.02835937 3.36328125 -0.04296875 C6.7836836 0.19416843 9.49723443 0.96641499 12.6875 2.1875 C12.3575 3.1775 12.0275 4.1675 11.6875 5.1875 C11.17445313 5.02636719 10.66140625 4.86523438 10.1328125 4.69921875 C6.91505306 4.02585376 3.84826404 4.01714908 0.5625 4 C-0.67757813 3.98582031 -1.91765625 3.97164063 -3.1953125 3.95703125 C-6.41425457 3.85389157 -6.41425457 3.85389157 -8.3125 6.1875 C-8.5625773 8.72940002 -8.5625773 8.72940002 -8.3125 11.1875 C-6.04908529 13.45091471 0.2023253 12.54262798 3.4296875 12.6171875 C4.55890625 12.66359375 4.55890625 12.66359375 5.7109375 12.7109375 C6.40106934 12.73075684 7.09120117 12.75057617 7.80224609 12.77099609 C10.23024179 13.30740644 11.14955181 14.27006574 12.6875 16.1875 C13.24384677 18.89287254 13.10918735 21.46362768 12.6875 24.1875 C11.4375 26.0625 11.4375 26.0625 9.6875 27.1875 C9.15640625 27.53554688 8.6253125 27.88359375 8.078125 28.2421875 C4.65150953 29.59715636 1.31486296 29.47692786 -2.3125 29.4375 C-3.0240625 29.44523437 -3.735625 29.45296875 -4.46875 29.4609375 C-8.23679832 29.44687762 -11.11739203 29.28428961 -14.3125 27.1875 C-14.3125 26.1975 -14.3125 25.2075 -14.3125 24.1875 C-13.62414062 24.34863281 -12.93578125 24.50976562 -12.2265625 24.67578125 C-9.00164408 25.2420873 -5.96095087 25.35618706 -2.6875 25.375 C-1.56085938 25.38917969 -0.43421875 25.40335937 0.7265625 25.41796875 C3.87476298 25.41543393 3.87476298 25.41543393 6.6875 23.1875 C6.9377157 20.10384129 6.9377157 20.10384129 6.6875 17.1875 C5.02460938 17.11402344 5.02460938 17.11402344 3.328125 17.0390625 C1.86455935 16.96400785 0.40101888 16.88846119 -1.0625 16.8125 C-1.79210937 16.7815625 -2.52171875 16.750625 -3.2734375 16.71875 C-10.24880558 16.33827538 -10.24880558 16.33827538 -13.3125 14.1875 C-14.87680248 11.05889505 -14.66877284 8.63147075 -14.3125 5.1875 C-9.9183445 0.67458354 -6.10737465 0.03522131 0 0 Z " fill="#E94444" transform="translate(450.3125,257.8125)"/>
<path d="M0 0 C1.65 0 3.3 0 5 0 C5.33 4.62 5.66 9.24 6 14 C7.381875 12.515 8.76375 11.03 10.1875 9.5 C14.31057692 5.06923077 14.31057692 5.06923077 17.80078125 4.71875 C18.88939453 4.85796875 18.88939453 4.85796875 20 5 C19.236875 5.7425 18.47375 6.485 17.6875 7.25 C15.55322567 9.43390862 13.78771232 11.5464828 12 14 C12.721875 14.78246094 13.44375 15.56492187 14.1875 16.37109375 C15.12512973 17.39311016 16.0626227 18.41525205 17 19.4375 C17.47695313 19.95376953 17.95390625 20.47003906 18.4453125 21.00195312 C22 24.88671875 22 24.88671875 22 26 C18.9375 26.5 18.9375 26.5 15 26 C12.28705144 23.61176729 10.13518274 20.90748288 8 18 C7.34 18.33 6.68 18.66 6 19 C5.59270772 21.32156597 5.25561323 23.6568787 5 26 C3.35 26 1.7 26 0 26 C0 17.42 0 8.84 0 0 Z " fill="#180E0E" transform="translate(337,325)"/>
<path d="M0 0 C0.680625 0.00515625 1.36125 0.0103125 2.0625 0.015625 C7.06441327 0.09470663 7.06441327 0.09470663 9.375 1.25 C9.045 2.24 8.715 3.23 8.375 4.25 C3.755 4.25 -0.865 4.25 -5.625 4.25 C-5.625 5.57 -5.625 6.89 -5.625 8.25 C-4.70976562 8.31058594 -3.79453125 8.37117188 -2.8515625 8.43359375 C-1.66304687 8.51738281 -0.47453125 8.60117187 0.75 8.6875 C1.93335938 8.76871094 3.11671875 8.84992188 4.3359375 8.93359375 C7.375 9.25 7.375 9.25 9.375 10.25 C9.86328125 16.20703125 9.86328125 16.20703125 9.375 18.25 C5.63022157 21.34864783 2.51049025 21.63363376 -2.25 21.5625 C-3.93996094 21.55669922 -3.93996094 21.55669922 -5.6640625 21.55078125 C-8.625 21.25 -8.625 21.25 -11.625 19.25 C-11.625 18.59 -11.625 17.93 -11.625 17.25 C-10.14386719 17.26740234 -10.14386719 17.26740234 -8.6328125 17.28515625 C-7.35148438 17.29417969 -6.07015625 17.30320312 -4.75 17.3125 C-2.83574219 17.32990234 -2.83574219 17.32990234 -0.8828125 17.34765625 C2.26164652 17.48176569 2.26164652 17.48176569 4.375 16.25 C4.375 15.26 4.375 14.27 4.375 13.25 C3.14523438 13.19392578 3.14523438 13.19392578 1.890625 13.13671875 C0.81296875 13.07097656 -0.2646875 13.00523437 -1.375 12.9375 C-2.44234375 12.87949219 -3.5096875 12.82148438 -4.609375 12.76171875 C-7.84774995 12.21220176 -9.32054101 11.55994579 -11.625 9.25 C-12.125 6.25 -12.125 6.25 -11.625 3.25 C-8.26981635 -0.35808694 -4.62236714 -0.14168175 0 0 Z " fill="#292020" transform="translate(226.625,329.75)"/>
<path d="M0 0 C1.39412109 0.00193359 1.39412109 0.00193359 2.81640625 0.00390625 C5.87540574 0.50994044 7.28655544 1.21134759 9.4375 3.4375 C9.96549676 6.19892303 9.62348981 8.60115545 9.4375 11.4375 C4.8175 11.4375 0.1975 11.4375 -4.5625 11.4375 C-4.2325 10.7775 -3.9025 10.1175 -3.5625 9.4375 C-0.5925 9.4375 2.3775 9.4375 5.4375 9.4375 C4.7775 7.7875 4.1175 6.1375 3.4375 4.4375 C0.02093976 4.27072718 0.02093976 4.27072718 -3.5625 4.4375 C-6.16954898 7.04454898 -5.80155333 8.91088241 -5.828125 12.46484375 C-5.66632514 14.75702326 -5.66632514 14.75702326 -3.5625 17.4375 C-0.44639446 18.02342634 -0.44639446 18.02342634 3.0625 18.125 C4.25101563 18.19074219 5.43953125 18.25648438 6.6640625 18.32421875 C7.57929688 18.36160156 8.49453125 18.39898437 9.4375 18.4375 C9.4375 19.0975 9.4375 19.7575 9.4375 20.4375 C6.6180932 21.8472034 4.20482774 21.60734647 1.0625 21.625 C-0.07960937 21.63917969 -1.22171875 21.65335937 -2.3984375 21.66796875 C-5.42339532 21.44763232 -7.07548805 21.11711707 -9.5625 19.4375 C-10.96682107 16.62885786 -10.84602778 14.1936645 -10.9375 11.0625 C-11.01097656 9.34933594 -11.01097656 9.34933594 -11.0859375 7.6015625 C-10.5625 4.4375 -10.5625 4.4375 -8.38671875 2.05078125 C-5.27403888 0.27272207 -3.55256494 -0.07411471 0 0 Z " fill="#191010" transform="translate(179.5625,329.5625)"/>
<path d="M0 0 C1.65 0 3.3 0 5 0 C5 2.64 5 5.28 5 8 C6.98 8 8.96 8 11 8 C11 8.66 11 9.32 11 10 C9.02 10 7.04 10 5 10 C5 17.59 5 25.18 5 33 C6.98 33 8.96 33 11 33 C10.67 33.99 10.34 34.98 10 36 C3.53171755 36.3661292 3.53171755 36.3661292 1.2878418 34.82104492 C-0.46578753 32.34136319 -0.34300688 30.69474844 -0.29296875 27.67578125 C-0.2784668 26.13374023 -0.2784668 26.13374023 -0.26367188 24.56054688 C-0.23853516 23.48869141 -0.21339844 22.41683594 -0.1875 21.3125 C-0.16719727 19.68731445 -0.16719727 19.68731445 -0.14648438 18.02929688 C-0.11110643 15.35236595 -0.06174189 12.67643162 0 10 C-0.99 10 -1.98 10 -3 10 C-3 9.34 -3 8.68 -3 8 C-2.01 8 -1.02 8 0 8 C0 5.36 0 2.72 0 0 Z " fill="#E94444" transform="translate(361,251)"/>
<path d="M0 0 C1.37376679 0.00398964 2.74753489 0.01873698 4.12109375 0.04296875 C4.81912109 0.04361328 5.51714844 0.04425781 6.23632812 0.04492188 C11.41828217 0.09015717 11.41828217 0.09015717 12.55859375 1.23046875 C12.65683312 2.89475926 12.68833006 4.56328806 12.68359375 6.23046875 C12.68746094 7.59171875 12.68746094 7.59171875 12.69140625 8.98046875 C12.55859375 11.23046875 12.55859375 11.23046875 11.55859375 12.23046875 C9.06429725 12.38360147 6.61670882 12.46203392 4.12109375 12.48046875 C3.07985352 12.51140625 3.07985352 12.51140625 2.01757812 12.54296875 C0 12.55859375 0 12.55859375 -3.44140625 12.23046875 C-5.89038472 8.55700104 -5.75678341 6.56690476 -5.44140625 2.23046875 C-3.44140625 0.23046875 -3.44140625 0.23046875 0 0 Z " fill="#FEF7F7" transform="translate(335.44140625,271.76953125)"/>
<path d="M0 0 C1.17175781 -0.01836914 1.17175781 -0.01836914 2.3671875 -0.03710938 C6.30135523 -0.04721426 8.28092449 -0.04188367 11.625 2.1875 C11.625 3.5075 11.625 4.8275 11.625 6.1875 C10.305 6.1875 8.985 6.1875 7.625 6.1875 C6.635 5.1975 5.645 4.2075 4.625 3.1875 C1.655 3.1875 -1.315 3.1875 -4.375 3.1875 C-4.375 11.4375 -4.375 19.6875 -4.375 28.1875 C-6.025 27.8575 -7.675 27.5275 -9.375 27.1875 C-9.40386537 22.87501391 -9.42175255 18.56255238 -9.4375 14.25 C-9.44587891 13.01830078 -9.45425781 11.78660156 -9.46289062 10.51757812 C-9.46611328 9.34775391 -9.46933594 8.17792969 -9.47265625 6.97265625 C-9.47789307 5.88863525 -9.48312988 4.80461426 -9.48852539 3.68774414 C-9.24312596 -1.71684851 -4.25873506 0.00347936 0 0 Z " fill="#E83E3E" transform="translate(420.375,258.8125)"/>
<path d="M0 0 C1.17175781 -0.01836914 1.17175781 -0.01836914 2.3671875 -0.03710938 C6.30135523 -0.04721426 8.28092449 -0.04188367 11.625 2.1875 C11.625 3.5075 11.625 4.8275 11.625 6.1875 C10.305 6.1875 8.985 6.1875 7.625 6.1875 C6.965 5.1975 6.305 4.2075 5.625 3.1875 C2.325 3.1875 -0.975 3.1875 -4.375 3.1875 C-4.375 11.4375 -4.375 19.6875 -4.375 28.1875 C-6.025 27.8575 -7.675 27.5275 -9.375 27.1875 C-9.40386537 22.87501391 -9.42175255 18.56255238 -9.4375 14.25 C-9.44587891 13.01830078 -9.45425781 11.78660156 -9.46289062 10.51757812 C-9.46611328 9.34775391 -9.46933594 8.17792969 -9.47265625 6.97265625 C-9.47789307 5.88863525 -9.48312988 4.80461426 -9.48852539 3.68774414 C-9.24312596 -1.71684851 -4.25873506 0.00347936 0 0 Z " fill="#E84040" transform="translate(276.375,258.8125)"/>
<path d="M0 0 C3.5 0.25 3.5 0.25 5.5 2.25 C5.765625 4.78125 5.765625 4.78125 5.75 7.75 C5.75515625 8.7296875 5.7603125 9.709375 5.765625 10.71875 C5.5 13.25 5.5 13.25 3.5 15.25 C0 15.5 0 15.5 -3.5 15.25 C-5.5 13.25 -5.5 13.25 -5.765625 10.71875 C-5.76046875 9.7390625 -5.7553125 8.759375 -5.75 7.75 C-5.75515625 6.7703125 -5.7603125 5.790625 -5.765625 4.78125 C-5.3283339 0.61412306 -4.06362854 0.29025918 0 0 Z " fill="#FBFBFB" transform="translate(300.5,332.75)"/>
<path d="M0 0 C1.32 0 2.64 0 4 0 C4 1.65 4 3.3 4 5 C5.65 5 7.3 5 9 5 C9 5.99 9 6.98 9 8 C7.35 8 5.7 8 4 8 C4.33 12.95 4.66 17.9 5 23 C6.32 23.33 7.64 23.66 9 24 C9 24.66 9 25.32 9 26 C2.60344828 26.36206897 2.60344828 26.36206897 0.28125 24.96875 C-1.69717729 21.92872758 -1.31481877 18.80886916 -1.1875 15.3125 C-1.17396484 14.61060547 -1.16042969 13.90871094 -1.14648438 13.18554688 C-1.11120182 11.45670171 -1.05739583 9.72825235 -1 8 C-1.66 8 -2.32 8 -3 8 C-3 7.01 -3 6.02 -3 5 C-2.01 5 -1.02 5 0 5 C0 3.35 0 1.7 0 0 Z " fill="#221818" transform="translate(195,325)"/>
<path d="M0 0 C1.06347656 -0.01417969 2.12695312 -0.02835937 3.22265625 -0.04296875 C5.9375 0.1875 5.9375 0.1875 7.9375 2.1875 C7.9375 3.5075 7.9375 4.8275 7.9375 6.1875 C6.6175 6.1875 5.2975 6.1875 3.9375 6.1875 C3.6075 5.5275 3.2775 4.8675 2.9375 4.1875 C0.6275 3.8575 -1.6825 3.5275 -4.0625 3.1875 C-4.0625 9.1275 -4.0625 15.0675 -4.0625 21.1875 C-5.7125 20.8575 -7.3625 20.5275 -9.0625 20.1875 C-9.0625 13.9175 -9.0625 7.6475 -9.0625 1.1875 C-5.83852808 0.11284269 -3.38779214 0.02058197 0 0 Z " fill="#140B0B" transform="translate(325.0625,329.8125)"/>
<path d="M0 0 C1.65 0 3.3 0 5 0 C5 6.93 5 13.86 5 21 C10.28 21 15.56 21 21 21 C21 21.66 21 22.32 21 23 C14.07 23 7.14 23 0 23 C0 15.41 0 7.82 0 0 Z " fill="#0B0101" transform="translate(145,327)"/>
<path d="M0 0 C5.91614677 -0.31137615 9.82383599 -0.00217512 15 3 C17.84953278 7.33624553 17 10.44678496 17 16 C10.4 16 3.8 16 -3 16 C-2.67 15.01 -2.34 14.02 -2 13 C2.62 13 7.24 13 12 13 C11.73606499 9.56769552 11.73606499 9.56769552 11 6 C7.79619983 3.86413322 6.98060033 3.76867825 3.3125 3.875 C2.10013672 3.90207031 2.10013672 3.90207031 0.86328125 3.9296875 C0.24839844 3.95289063 -0.36648438 3.97609375 -1 4 C-0.67 2.68 -0.34 1.36 0 0 Z " fill="#EB5757" transform="translate(303,258)"/>
<path d="M0 0 C0.33 0 0.66 0 1 0 C1.042721 1.66611905 1.04063832 3.33382885 1 5 C-1.17947652 7.17947652 -6.55891199 6.45337729 -9.62890625 6.60546875 C-13.10944277 6.4970552 -13.10944277 6.4970552 -16 8 C-16.30523962 12.65088715 -16.30523962 12.65088715 -15 17 C-11.95418731 17.46954261 -11.95418731 17.46954261 -8.4375 17.625 C-6.64119141 17.73714844 -6.64119141 17.73714844 -4.80859375 17.8515625 C-3.88175781 17.90054687 -2.95492188 17.94953125 -2 18 C-2 18.33 -2 18.66 -2 19 C-6.95 19.495 -6.95 19.495 -12 20 C-12 20.33 -12 20.66 -12 21 C-18.41954359 20.63662961 -18.41954359 20.63662961 -20.9375 17.875 C-22.50060967 13.64540913 -22.84486636 10.02408409 -21.08203125 5.80078125 C-17.62974067 2.81484137 -13.70349305 3.58296881 -9.3125 3.75 C-8.41982422 3.76804687 -7.52714844 3.78609375 -6.60742188 3.8046875 C-4.40386496 3.85182241 -2.20247399 3.91759343 0 4 C0 2.68 0 1.36 0 0 Z " fill="#EA4D4D" transform="translate(347,266)"/>
<path d="M0 0 C1.37478516 0.01740234 1.37478516 0.01740234 2.77734375 0.03515625 C3.69644531 0.04417969 4.61554688 0.05320312 5.5625 0.0625 C6.27277344 0.07410156 6.98304687 0.08570313 7.71484375 0.09765625 C7.71484375 3.06765625 7.71484375 6.03765625 7.71484375 9.09765625 C6.06909809 9.12453776 4.42322962 9.14399748 2.77734375 9.16015625 C1.86082031 9.17175781 0.94429688 9.18335938 0 9.1953125 C-2.28515625 9.09765625 -2.28515625 9.09765625 -3.28515625 8.09765625 C-3.41015625 4.59765625 -3.41015625 4.59765625 -3.28515625 1.09765625 C-2.28515625 0.09765625 -2.28515625 0.09765625 0 0 Z " fill="#FEF6F6" transform="translate(112.28515625,272.90234375)"/>
<path d="M0 0 C1.7492214 -0.08142927 3.49954542 -0.13938541 5.25 -0.1875 C6.22453125 -0.22230469 7.1990625 -0.25710938 8.203125 -0.29296875 C11.44315607 0.04641998 12.76836113 0.64204195 15 3 C15.52799676 5.76142303 15.18598981 8.16365545 15 11 C10.38 11 5.76 11 1 11 C1.33 10.34 1.66 9.68 2 9 C4.97 9 7.94 9 11 9 C10.34 7.35 9.68 5.7 9 4 C6.69 3.67 4.38 3.34 2 3 C2 2.34 2 1.68 2 1 C1.34 0.67 0.68 0.34 0 0 Z " fill="#231B1B" transform="translate(174,330)"/>
<path d="M0 0 C2 2 2 2 2 6 C-2.455 6.495 -2.455 6.495 -7 7 C-2.71 7.33 1.58 7.66 6 8 C6 8.33 6 8.66 6 9 C1.05 9 -3.9 9 -9 9 C-9.33 9.66 -9.66 10.32 -10 11 C-10.36010591 3.67784643 -10.36010591 3.67784643 -8.9375 1 C-5.91000701 -0.56257703 -3.33615038 -0.3032864 0 0 Z " fill="#E8E7E7" transform="translate(183,333)"/>
<path d="M0 0 C1.32 0 2.64 0 4 0 C4.02709444 2.08326131 4.04643873 4.16662441 4.0625 6.25 C4.07410156 7.41015625 4.08570313 8.5703125 4.09765625 9.765625 C4.01782092 12.40977128 3.78643778 14.49826091 3 17 C2.01 17 1.02 17 0 17 C0 11.39 0 5.78 0 0 Z " fill="#160D0D" transform="translate(362,325)"/>
<path d="M0 0 C2.04136395 -0.05451714 4.08315856 -0.09302485 6.125 -0.125 C7.83042969 -0.15980469 7.83042969 -0.15980469 9.5703125 -0.1953125 C13.05757767 0.00327891 15.7553862 0.7475199 19 2 C18.67 2.99 18.34 3.98 18 5 C17.24976563 4.75443359 17.24976563 4.75443359 16.484375 4.50390625 C13.0736532 3.8121089 9.71264243 3.89495335 6.25 3.9375 C5.55261719 3.94201172 4.85523438 3.94652344 4.13671875 3.95117188 C2.42444197 3.9628998 0.71220967 3.98083347 -1 4 C-0.67 2.68 -0.34 1.36 0 0 Z " fill="#EA4D4D" transform="translate(444,258)"/>
<path d="M0 0 C1.95803507 -0.05389087 3.91648909 -0.09274217 5.875 -0.125 C7.51082031 -0.15980469 7.51082031 -0.15980469 9.1796875 -0.1953125 C12 0 12 0 14 2 C14 3.32 14 4.64 14 6 C12.68 6 11.36 6 10 6 C9.67 5.34 9.34 4.68 9 4 C6.67843403 3.59270772 4.3431213 3.25561323 2 3 C2 2.34 2 1.68 2 1 C1.34 0.67 0.68 0.34 0 0 Z " fill="#292020" transform="translate(319,330)"/>
<path d="M0 0 C1.93719378 -0.05406122 3.87481921 -0.09282025 5.8125 -0.125 C6.89144531 -0.14820313 7.97039062 -0.17140625 9.08203125 -0.1953125 C12 0 12 0 15 2 C15 3.32 15 4.64 15 6 C13.68 6 12.36 6 11 6 C10.34 5.01 9.68 4.02 9 3 C6.56306689 2.63583953 6.56306689 2.63583953 3.875 2.8125 C2.50988281 2.85310547 2.50988281 2.85310547 1.1171875 2.89453125 C0.41851562 2.92933594 -0.28015625 2.96414063 -1 3 C-0.67 2.01 -0.34 1.02 0 0 Z " fill="#E73737" transform="translate(273,259)"/>
<path d="M0 0 C1.79158489 -0.02696365 3.58328473 -0.04637917 5.375 -0.0625 C6.37273437 -0.07410156 7.37046875 -0.08570313 8.3984375 -0.09765625 C11 0 11 0 13 1 C12.67 1.99 12.34 2.98 12 4 C11.34 3.67 10.68 3.34 10 3 C8.12943209 2.7724985 6.25314042 2.59037189 4.375 2.4375 C3.37210938 2.35371094 2.36921875 2.26992188 1.3359375 2.18359375 C0.56507813 2.12300781 -0.20578125 2.06242187 -1 2 C-0.67 1.34 -0.34 0.68 0 0 Z " fill="#130909" transform="translate(223,330)"/>
<path d="M0 0 C3.3 0 6.6 0 10 0 C9.67 0.99 9.34 1.98 9 3 C6.69 3 4.38 3 2 3 C2 2.34 2 1.68 2 1 C1.34 0.67 0.68 0.34 0 0 Z " fill="#312828" transform="translate(319,330)"/>
<path d="M0 0 C3.63 0.33 7.26 0.66 11 1 C7.3558226 3.4294516 5.28758728 3.16179575 1 3 C0.67 2.01 0.34 1.02 0 0 Z " fill="#170E0E" transform="translate(215,347)"/>
<path d="M0 0 C0.66 0 1.32 0 2 0 C1.125 5.75 1.125 5.75 0 8 C-0.66 8 -1.32 8 -2 8 C-1.125 1.125 -1.125 1.125 0 0 Z " fill="#231A1A" transform="translate(210,325)"/>
<path d="M0 0 C1.32 0 2.64 0 4 0 C4 1.32 4 2.64 4 4 C2.35 3.67 0.7 3.34 -1 3 C-0.67 2.01 -0.34 1.02 0 0 Z " fill="#3A3232" transform="translate(362,347)"/>
</svg>
