<svg width="20" height="20" viewBox="0 0 20 20" fill="none" xmlns="http://www.w3.org/2000/svg">
<path d="M15 15.7164H14.3667C13.7 15.7164 13.0667 15.9748 12.6 16.4414L11.175 17.8498C10.525 18.4915 9.46667 18.4915 8.81667 17.8498L7.39166 16.4414C6.925 15.9748 6.28333 15.7164 5.625 15.7164H5C3.61667 15.7164 2.5 14.6081 2.5 13.2415V4.14978C2.5 2.78311 3.61667 1.6748 5 1.6748H15C16.3833 1.6748 17.5 2.78311 17.5 4.14978V13.2415C17.5 14.5998 16.3833 15.7164 15 15.7164Z" stroke="#111111" stroke-width="1.5" stroke-miterlimit="10" stroke-linecap="round" stroke-linejoin="round"/>
<path d="M5.83398 7.633C5.83398 6.858 6.46732 6.22461 7.24232 6.22461C8.01732 6.22461 8.65066 6.858 8.65066 7.633C8.65066 9.19966 6.42565 9.36632 5.93398 10.858C5.83398 11.1663 6.09232 11.4746 6.41732 11.4746H8.65066" stroke="#111111" stroke-width="1.5" stroke-linecap="round" stroke-linejoin="round"/>
<path d="M13.3674 11.4666V6.70826C13.3674 6.49159 13.2258 6.29987 13.0174 6.24154C12.8091 6.18321 12.5841 6.26654 12.4675 6.44987C11.8675 7.41654 11.2174 8.51655 10.6508 9.48322C10.5591 9.64155 10.5591 9.84989 10.6508 10.0082C10.7424 10.1666 10.9175 10.2665 11.1091 10.2665H14.1674" stroke="#111111" stroke-width="1.5" stroke-linecap="round" stroke-linejoin="round"/>
</svg>
